<?xml version="1.0" encoding="UTF-8" standalone="no"?>
<!DOCTYPE svg PUBLIC "-//W3C//DTD SVG 1.1//EN"
 "http://www.w3.org/Graphics/SVG/1.1/DTD/svg11.dtd">
<!-- Generated by graphviz version 2.28.0 (20121118.0041)
 -->
<!-- Title: controllers_diagram Pages: 1 -->
<svg width="918pt" height="828pt"
 viewBox="0.00 0.00 917.98 828.11" xmlns="http://www.w3.org/2000/svg" xmlns:xlink="http://www.w3.org/1999/xlink">
<g id="graph1" class="graph" transform="scale(1 1) rotate(0) translate(4 824.109)">
<title>controllers_diagram</title>
<polygon fill="white" stroke="white" points="-4,5 -4,-824.109 914.979,-824.109 914.979,5 -4,5"/>
<!-- _diagram_info -->
<g id="node1" class="node"><title>_diagram_info</title>
<text text-anchor="start" x="711.555" y="-133" font-family="Times,serif" font-size="13.00">Controllers diagram</text>
<text text-anchor="start" x="711.555" y="-117.4" font-family="Times,serif" font-size="13.00">Date: Nov 17 2012 &#45; 14:48</text>
<text text-anchor="start" x="711.555" y="-101.8" font-family="Times,serif" font-size="13.00">Migration version: 20121115213438</text>
<text text-anchor="start" x="711.555" y="-86.2" font-family="Times,serif" font-size="13.00">Generated by RailRoady 1.1.0</text>
<text text-anchor="start" x="711.555" y="-70.6" font-family="Times,serif" font-size="13.00">http://railroady.prestonlee.com</text>
</g>
<!-- ActivitiesController -->
<g id="node2" class="node"><title>ActivitiesController</title>
<polyline fill="none" stroke="black" points="33.4054,-502.442 137.385,-502.442 "/>
<path fill="none" stroke="black" d="M137.385,-502.442C143.385,-502.442 149.385,-508.442 149.385,-514.442"/>
<polyline fill="none" stroke="black" points="149.385,-514.442 149.385,-622.442 "/>
<path fill="none" stroke="black" d="M149.385,-622.442C149.385,-628.442 143.385,-634.442 137.385,-634.442"/>
<polyline fill="none" stroke="black" points="137.385,-634.442 33.4054,-634.442 "/>
<path fill="none" stroke="black" d="M33.4054,-634.442C27.4054,-634.442 21.4054,-628.442 21.4054,-622.442"/>
<polyline fill="none" stroke="black" points="21.4054,-622.442 21.4054,-514.442 "/>
<path fill="none" stroke="black" d="M21.4054,-514.442C21.4054,-508.442 27.4054,-502.442 33.4054,-502.442"/>
<text text-anchor="middle" x="85.3952" y="-616.442" font-family="Times,serif" font-size="14.00">ActivitiesController</text>
<polyline fill="none" stroke="black" points="21.4054,-609.642 149.385,-609.642 "/>
<text text-anchor="start" x="29.4054" y="-591.642" font-family="Times,serif" font-size="14.00">create</text>
<text text-anchor="start" x="29.4054" y="-574.842" font-family="Times,serif" font-size="14.00">destroy</text>
<text text-anchor="start" x="29.4054" y="-558.042" font-family="Times,serif" font-size="14.00">index</text>
<polyline fill="none" stroke="black" points="21.4054,-551.242 149.385,-551.242 "/>
<polyline fill="none" stroke="black" points="21.4054,-527.242 149.385,-527.242 "/>
<text text-anchor="start" x="29.4054" y="-509.242" font-family="Times,serif" font-size="14.00">_layout</text>
</g>
<!-- ApplicationController -->
<g id="node3" class="node"><title>ApplicationController</title>
<polyline fill="none" stroke="black" points="305.649,-306.308 484.283,-306.308 "/>
<path fill="none" stroke="black" d="M484.283,-306.308C490.283,-306.308 496.283,-312.308 496.283,-318.308"/>
<polyline fill="none" stroke="black" points="496.283,-318.308 496.283,-510.308 "/>
<path fill="none" stroke="black" d="M496.283,-510.308C496.283,-516.308 490.283,-522.308 484.283,-522.308"/>
<polyline fill="none" stroke="black" points="484.283,-522.308 305.649,-522.308 "/>
<path fill="none" stroke="black" d="M305.649,-522.308C299.649,-522.308 293.649,-516.308 293.649,-510.308"/>
<polyline fill="none" stroke="black" points="293.649,-510.308 293.649,-318.308 "/>
<path fill="none" stroke="black" d="M293.649,-318.308C293.649,-312.308 299.649,-306.308 305.649,-306.308"/>
<text text-anchor="middle" x="394.966" y="-504.308" font-family="Times,serif" font-size="14.00">ApplicationController</text>
<polyline fill="none" stroke="black" points="293.649,-497.508 496.283,-497.508 "/>
<text text-anchor="start" x="301.649" y="-479.508" font-family="Times,serif" font-size="14.00">_one_time_conditions_valid_10?</text>
<text text-anchor="start" x="301.649" y="-462.708" font-family="Times,serif" font-size="14.00">_one_time_conditions_valid_8?</text>
<text text-anchor="start" x="301.649" y="-445.908" font-family="Times,serif" font-size="14.00">allow?</text>
<text text-anchor="start" x="301.649" y="-429.108" font-family="Times,serif" font-size="14.00">allow_attr?</text>
<polyline fill="none" stroke="black" points="293.649,-422.308 496.283,-422.308 "/>
<polyline fill="none" stroke="black" points="293.649,-398.308 496.283,-398.308 "/>
<text text-anchor="start" x="301.649" y="-380.308" font-family="Times,serif" font-size="14.00">_layout</text>
<text text-anchor="start" x="301.649" y="-363.508" font-family="Times,serif" font-size="14.00">authorize</text>
<text text-anchor="start" x="301.649" y="-346.708" font-family="Times,serif" font-size="14.00">current_permission</text>
<text text-anchor="start" x="301.649" y="-329.908" font-family="Times,serif" font-size="14.00">current_resource</text>
<text text-anchor="start" x="301.649" y="-313.108" font-family="Times,serif" font-size="14.00">current_user</text>
</g>
<!-- ApplicationController&#45;&gt;ActivitiesController -->
<g id="edge2" class="edge"><title>ApplicationController&#45;&gt;ActivitiesController</title>
<path fill="none" stroke="black" d="M293.601,-464.777C246.167,-488.395 191.103,-515.81 149.521,-536.514"/>
</g>
<!-- AuthenticationsController -->
<g id="node4" class="node"><title>AuthenticationsController</title>
<polyline fill="none" stroke="black" points="272.357,-0.5 410.551,-0.5 "/>
<path fill="none" stroke="black" d="M410.551,-0.5C416.551,-0.5 422.551,-6.5 422.551,-12.5"/>
<polyline fill="none" stroke="black" points="422.551,-12.5 422.551,-137.3 "/>
<path fill="none" stroke="black" d="M422.551,-137.3C422.551,-143.3 416.551,-149.3 410.551,-149.3"/>
<polyline fill="none" stroke="black" points="410.551,-149.3 272.357,-149.3 "/>
<path fill="none" stroke="black" d="M272.357,-149.3C266.357,-149.3 260.357,-143.3 260.357,-137.3"/>
<polyline fill="none" stroke="black" points="260.357,-137.3 260.357,-12.5 "/>
<path fill="none" stroke="black" d="M260.357,-12.5C260.357,-6.5 266.357,-0.5 272.357,-0.5"/>
<text text-anchor="middle" x="341.454" y="-131.3" font-family="Times,serif" font-size="14.00">AuthenticationsController</text>
<polyline fill="none" stroke="black" points="260.357,-124.5 422.551,-124.5 "/>
<text text-anchor="start" x="268.357" y="-106.5" font-family="Times,serif" font-size="14.00">create</text>
<text text-anchor="start" x="268.357" y="-89.7" font-family="Times,serif" font-size="14.00">failure</text>
<text text-anchor="start" x="268.357" y="-72.9" font-family="Times,serif" font-size="14.00">index</text>
<text text-anchor="start" x="268.357" y="-56.1" font-family="Times,serif" font-size="14.00">returning</text>
<polyline fill="none" stroke="black" points="260.357,-49.3 422.551,-49.3 "/>
<polyline fill="none" stroke="black" points="260.357,-25.3 422.551,-25.3 "/>
<text text-anchor="start" x="268.357" y="-7.3" font-family="Times,serif" font-size="14.00">_layout</text>
</g>
<!-- ApplicationController&#45;&gt;AuthenticationsController -->
<g id="edge4" class="edge"><title>ApplicationController&#45;&gt;AuthenticationsController</title>
<path fill="none" stroke="black" d="M377.887,-305.984C369.843,-254.961 360.45,-195.383 353.216,-149.501"/>
</g>
<!-- CommentsController -->
<g id="node5" class="node"><title>CommentsController</title>
<polyline fill="none" stroke="black" points="391.238,-687.609 501.452,-687.609 "/>
<path fill="none" stroke="black" d="M501.452,-687.609C507.452,-687.609 513.452,-693.609 513.452,-699.609"/>
<polyline fill="none" stroke="black" points="513.452,-699.609 513.452,-807.609 "/>
<path fill="none" stroke="black" d="M513.452,-807.609C513.452,-813.609 507.452,-819.609 501.452,-819.609"/>
<polyline fill="none" stroke="black" points="501.452,-819.609 391.238,-819.609 "/>
<path fill="none" stroke="black" d="M391.238,-819.609C385.238,-819.609 379.238,-813.609 379.238,-807.609"/>
<polyline fill="none" stroke="black" points="379.238,-807.609 379.238,-699.609 "/>
<path fill="none" stroke="black" d="M379.238,-699.609C379.238,-693.609 385.238,-687.609 391.238,-687.609"/>
<text text-anchor="middle" x="446.345" y="-801.609" font-family="Times,serif" font-size="14.00">CommentsController</text>
<polyline fill="none" stroke="black" points="379.238,-794.809 513.452,-794.809 "/>
<text text-anchor="start" x="387.238" y="-776.809" font-family="Times,serif" font-size="14.00">create</text>
<text text-anchor="start" x="387.238" y="-760.009" font-family="Times,serif" font-size="14.00">destroy</text>
<polyline fill="none" stroke="black" points="379.238,-753.209 513.452,-753.209 "/>
<polyline fill="none" stroke="black" points="379.238,-729.209 513.452,-729.209 "/>
<text text-anchor="start" x="387.238" y="-711.209" font-family="Times,serif" font-size="14.00">_layout</text>
<text text-anchor="start" x="387.238" y="-694.409" font-family="Times,serif" font-size="14.00">current_resource</text>
</g>
<!-- ApplicationController&#45;&gt;CommentsController -->
<g id="edge6" class="edge"><title>ApplicationController&#45;&gt;CommentsController</title>
<path fill="none" stroke="black" d="M411.364,-522.598C419.572,-576.805 429.243,-640.672 436.334,-687.497"/>
</g>
<!-- InterestsController -->
<g id="node6" class="node"><title>InterestsController</title>
<polyline fill="none" stroke="black" points="587.833,-574.829 684.806,-574.829 "/>
<path fill="none" stroke="black" d="M684.806,-574.829C690.806,-574.829 696.806,-580.829 696.806,-586.829"/>
<polyline fill="none" stroke="black" points="696.806,-586.829 696.806,-728.429 "/>
<path fill="none" stroke="black" d="M696.806,-728.429C696.806,-734.429 690.806,-740.429 684.806,-740.429"/>
<polyline fill="none" stroke="black" points="684.806,-740.429 587.833,-740.429 "/>
<path fill="none" stroke="black" d="M587.833,-740.429C581.833,-740.429 575.833,-734.429 575.833,-728.429"/>
<polyline fill="none" stroke="black" points="575.833,-728.429 575.833,-586.829 "/>
<path fill="none" stroke="black" d="M575.833,-586.829C575.833,-580.829 581.833,-574.829 587.833,-574.829"/>
<text text-anchor="middle" x="636.319" y="-722.429" font-family="Times,serif" font-size="14.00">InterestsController</text>
<polyline fill="none" stroke="black" points="575.833,-715.629 696.806,-715.629 "/>
<text text-anchor="start" x="583.833" y="-697.629" font-family="Times,serif" font-size="14.00">create</text>
<text text-anchor="start" x="583.833" y="-680.829" font-family="Times,serif" font-size="14.00">destroy</text>
<text text-anchor="start" x="583.833" y="-664.029" font-family="Times,serif" font-size="14.00">new</text>
<text text-anchor="start" x="583.833" y="-647.229" font-family="Times,serif" font-size="14.00">update</text>
<polyline fill="none" stroke="black" points="575.833,-640.429 696.806,-640.429 "/>
<polyline fill="none" stroke="black" points="575.833,-616.429 696.806,-616.429 "/>
<text text-anchor="start" x="583.833" y="-598.429" font-family="Times,serif" font-size="14.00">_layout</text>
<text text-anchor="start" x="583.833" y="-581.629" font-family="Times,serif" font-size="14.00">current_resource</text>
</g>
<!-- ApplicationController&#45;&gt;InterestsController -->
<g id="edge8" class="edge"><title>ApplicationController&#45;&gt;InterestsController</title>
<path fill="none" stroke="black" d="M496.622,-516.793C523.547,-543.937 551.768,-572.389 575.741,-596.556"/>
</g>
<!-- PasswordResetsController -->
<g id="node7" class="node"><title>PasswordResetsController</title>
<polyline fill="none" stroke="black" points="167.56,-643.442 307.326,-643.442 "/>
<path fill="none" stroke="black" d="M307.326,-643.442C313.326,-643.442 319.326,-649.442 319.326,-655.442"/>
<polyline fill="none" stroke="black" points="319.326,-655.442 319.326,-780.242 "/>
<path fill="none" stroke="black" d="M319.326,-780.242C319.326,-786.242 313.326,-792.242 307.326,-792.242"/>
<polyline fill="none" stroke="black" points="307.326,-792.242 167.56,-792.242 "/>
<path fill="none" stroke="black" d="M167.56,-792.242C161.56,-792.242 155.56,-786.242 155.56,-780.242"/>
<polyline fill="none" stroke="black" points="155.56,-780.242 155.56,-655.442 "/>
<path fill="none" stroke="black" d="M155.56,-655.442C155.56,-649.442 161.56,-643.442 167.56,-643.442"/>
<text text-anchor="middle" x="237.443" y="-774.242" font-family="Times,serif" font-size="14.00">PasswordResetsController</text>
<polyline fill="none" stroke="black" points="155.56,-767.442 319.326,-767.442 "/>
<text text-anchor="start" x="163.56" y="-749.442" font-family="Times,serif" font-size="14.00">create</text>
<text text-anchor="start" x="163.56" y="-732.642" font-family="Times,serif" font-size="14.00">edit</text>
<text text-anchor="start" x="163.56" y="-715.842" font-family="Times,serif" font-size="14.00">new</text>
<text text-anchor="start" x="163.56" y="-699.042" font-family="Times,serif" font-size="14.00">update</text>
<polyline fill="none" stroke="black" points="155.56,-692.242 319.326,-692.242 "/>
<polyline fill="none" stroke="black" points="155.56,-668.242 319.326,-668.242 "/>
<text text-anchor="start" x="163.56" y="-650.242" font-family="Times,serif" font-size="14.00">_layout</text>
</g>
<!-- ApplicationController&#45;&gt;PasswordResetsController -->
<g id="edge10" class="edge"><title>ApplicationController&#45;&gt;PasswordResetsController</title>
<path fill="none" stroke="black" d="M338.764,-522.605C318,-562.615 294.952,-607.027 276.09,-643.371"/>
</g>
<!-- PlaceImagesController -->
<g id="node8" class="node"><title>PlaceImagesController</title>
<polyline fill="none" stroke="black" points="90.2704,-121.061 210.56,-121.061 "/>
<path fill="none" stroke="black" d="M210.56,-121.061C216.56,-121.061 222.56,-127.061 222.56,-133.061"/>
<polyline fill="none" stroke="black" points="222.56,-133.061 222.56,-207.461 "/>
<path fill="none" stroke="black" d="M222.56,-207.461C222.56,-213.461 216.56,-219.461 210.56,-219.461"/>
<polyline fill="none" stroke="black" points="210.56,-219.461 90.2704,-219.461 "/>
<path fill="none" stroke="black" d="M90.2704,-219.461C84.2704,-219.461 78.2704,-213.461 78.2704,-207.461"/>
<polyline fill="none" stroke="black" points="78.2704,-207.461 78.2704,-133.061 "/>
<path fill="none" stroke="black" d="M78.2704,-133.061C78.2704,-127.061 84.2704,-121.061 90.2704,-121.061"/>
<text text-anchor="middle" x="150.415" y="-201.461" font-family="Times,serif" font-size="14.00">PlaceImagesController</text>
<polyline fill="none" stroke="black" points="78.2704,-194.661 222.56,-194.661 "/>
<text text-anchor="start" x="86.2704" y="-176.661" font-family="Times,serif" font-size="14.00">index</text>
<polyline fill="none" stroke="black" points="78.2704,-169.861 222.56,-169.861 "/>
<polyline fill="none" stroke="black" points="78.2704,-145.861 222.56,-145.861 "/>
<text text-anchor="start" x="86.2704" y="-127.861" font-family="Times,serif" font-size="14.00">_layout</text>
</g>
<!-- ApplicationController&#45;&gt;PlaceImagesController -->
<g id="edge12" class="edge"><title>ApplicationController&#45;&gt;PlaceImagesController</title>
<path fill="none" stroke="black" d="M293.379,-312.93C261.096,-280.714 226.832,-246.52 199.943,-219.687"/>
</g>
<!-- PlacesController -->
<g id="node9" class="node"><title>PlacesController</title>
<polyline fill="none" stroke="black" points="690.023,-393.953 776.079,-393.953 "/>
<path fill="none" stroke="black" d="M776.079,-393.953C782.079,-393.953 788.079,-399.953 788.079,-405.953"/>
<polyline fill="none" stroke="black" points="788.079,-405.953 788.079,-530.753 "/>
<path fill="none" stroke="black" d="M788.079,-530.753C788.079,-536.753 782.079,-542.753 776.079,-542.753"/>
<polyline fill="none" stroke="black" points="776.079,-542.753 690.023,-542.753 "/>
<path fill="none" stroke="black" d="M690.023,-542.753C684.023,-542.753 678.023,-536.753 678.023,-530.753"/>
<polyline fill="none" stroke="black" points="678.023,-530.753 678.023,-405.953 "/>
<path fill="none" stroke="black" d="M678.023,-405.953C678.023,-399.953 684.023,-393.953 690.023,-393.953"/>
<text text-anchor="middle" x="733.051" y="-524.753" font-family="Times,serif" font-size="14.00">PlacesController</text>
<polyline fill="none" stroke="black" points="678.023,-517.953 788.079,-517.953 "/>
<text text-anchor="start" x="686.023" y="-499.953" font-family="Times,serif" font-size="14.00">index</text>
<text text-anchor="start" x="686.023" y="-483.153" font-family="Times,serif" font-size="14.00">new</text>
<text text-anchor="start" x="686.023" y="-466.353" font-family="Times,serif" font-size="14.00">show</text>
<polyline fill="none" stroke="black" points="678.023,-459.553 788.079,-459.553 "/>
<polyline fill="none" stroke="black" points="678.023,-435.553 788.079,-435.553 "/>
<text text-anchor="start" x="686.023" y="-417.553" font-family="Times,serif" font-size="14.00">_layout</text>
<text text-anchor="start" x="686.023" y="-400.753" font-family="Times,serif" font-size="14.00">current_resource</text>
</g>
<!-- ApplicationController&#45;&gt;PlacesController -->
<g id="edge14" class="edge"><title>ApplicationController&#45;&gt;PlacesController</title>
<path fill="none" stroke="black" d="M496.403,-430.523C555.92,-440.038 628.825,-451.692 677.856,-459.529"/>
</g>
<!-- SessionsController -->
<g id="node10" class="node"><title>SessionsController</title>
<polyline fill="none" stroke="black" points="11.5552,-293.75 109.334,-293.75 "/>
<path fill="none" stroke="black" d="M109.334,-293.75C115.334,-293.75 121.334,-299.75 121.334,-305.75"/>
<polyline fill="none" stroke="black" points="121.334,-305.75 121.334,-413.75 "/>
<path fill="none" stroke="black" d="M121.334,-413.75C121.334,-419.75 115.334,-425.75 109.334,-425.75"/>
<polyline fill="none" stroke="black" points="109.334,-425.75 11.5552,-425.75 "/>
<path fill="none" stroke="black" d="M11.5552,-425.75C5.55518,-425.75 -0.444824,-419.75 -0.444824,-413.75"/>
<polyline fill="none" stroke="black" points="-0.444824,-413.75 -0.444824,-305.75 "/>
<path fill="none" stroke="black" d="M-0.444824,-305.75C-0.444824,-299.75 5.55518,-293.75 11.5552,-293.75"/>
<text text-anchor="middle" x="60.4448" y="-407.75" font-family="Times,serif" font-size="14.00">SessionsController</text>
<polyline fill="none" stroke="black" points="-0.444824,-400.95 121.334,-400.95 "/>
<text text-anchor="start" x="7.55518" y="-382.95" font-family="Times,serif" font-size="14.00">create</text>
<text text-anchor="start" x="7.55518" y="-366.15" font-family="Times,serif" font-size="14.00">destroy</text>
<text text-anchor="start" x="7.55518" y="-349.35" font-family="Times,serif" font-size="14.00">new</text>
<polyline fill="none" stroke="black" points="-0.444824,-342.55 121.334,-342.55 "/>
<polyline fill="none" stroke="black" points="-0.444824,-318.55 121.334,-318.55 "/>
<text text-anchor="start" x="7.55518" y="-300.55" font-family="Times,serif" font-size="14.00">_layout</text>
</g>
<!-- ApplicationController&#45;&gt;SessionsController -->
<g id="edge16" class="edge"><title>ApplicationController&#45;&gt;SessionsController</title>
<path fill="none" stroke="black" d="M293.236,-397.717C237.107,-388.563 169.283,-377.501 121.361,-369.685"/>
</g>
<!-- UserImagesController -->
<g id="node11" class="node"><title>UserImagesController</title>
<polyline fill="none" stroke="black" points="642.924,-200.015 759.331,-200.015 "/>
<path fill="none" stroke="black" d="M759.331,-200.015C765.331,-200.015 771.331,-206.015 771.331,-212.015"/>
<polyline fill="none" stroke="black" points="771.331,-212.015 771.331,-303.215 "/>
<path fill="none" stroke="black" d="M771.331,-303.215C771.331,-309.215 765.331,-315.215 759.331,-315.215"/>
<polyline fill="none" stroke="black" points="759.331,-315.215 642.924,-315.215 "/>
<path fill="none" stroke="black" d="M642.924,-315.215C636.924,-315.215 630.924,-309.215 630.924,-303.215"/>
<polyline fill="none" stroke="black" points="630.924,-303.215 630.924,-212.015 "/>
<path fill="none" stroke="black" d="M630.924,-212.015C630.924,-206.015 636.924,-200.015 642.924,-200.015"/>
<text text-anchor="middle" x="701.127" y="-297.215" font-family="Times,serif" font-size="14.00">UserImagesController</text>
<polyline fill="none" stroke="black" points="630.924,-290.415 771.331,-290.415 "/>
<text text-anchor="start" x="638.924" y="-272.415" font-family="Times,serif" font-size="14.00">index</text>
<text text-anchor="start" x="638.924" y="-255.615" font-family="Times,serif" font-size="14.00">update</text>
<polyline fill="none" stroke="black" points="630.924,-248.815 771.331,-248.815 "/>
<polyline fill="none" stroke="black" points="630.924,-224.815 771.331,-224.815 "/>
<text text-anchor="start" x="638.924" y="-206.815" font-family="Times,serif" font-size="14.00">_layout</text>
</g>
<!-- ApplicationController&#45;&gt;UserImagesController -->
<g id="edge18" class="edge"><title>ApplicationController&#45;&gt;UserImagesController</title>
<path fill="none" stroke="black" d="M496.488,-362.349C540.526,-339.811 591.01,-313.973 630.817,-293.6"/>
</g>
<!-- UsersController -->
<g id="node12" class="node"><title>UsersController</title>
<polyline fill="none" stroke="black" points="506.475,-10.387 592.531,-10.387 "/>
<path fill="none" stroke="black" d="M592.531,-10.387C598.531,-10.387 604.531,-16.387 604.531,-22.387"/>
<polyline fill="none" stroke="black" points="604.531,-22.387 604.531,-197.587 "/>
<path fill="none" stroke="black" d="M604.531,-197.587C604.531,-203.587 598.531,-209.587 592.531,-209.587"/>
<polyline fill="none" stroke="black" points="592.531,-209.587 506.475,-209.587 "/>
<path fill="none" stroke="black" d="M506.475,-209.587C500.475,-209.587 494.475,-203.587 494.475,-197.587"/>
<polyline fill="none" stroke="black" points="494.475,-197.587 494.475,-22.387 "/>
<path fill="none" stroke="black" d="M494.475,-22.387C494.475,-16.387 500.475,-10.387 506.475,-10.387"/>
<text text-anchor="middle" x="549.503" y="-191.587" font-family="Times,serif" font-size="14.00">UsersController</text>
<polyline fill="none" stroke="black" points="494.475,-184.787 604.531,-184.787 "/>
<text text-anchor="start" x="502.475" y="-166.787" font-family="Times,serif" font-size="14.00">create</text>
<text text-anchor="start" x="502.475" y="-149.987" font-family="Times,serif" font-size="14.00">current_resource</text>
<text text-anchor="start" x="502.475" y="-133.187" font-family="Times,serif" font-size="14.00">edit</text>
<text text-anchor="start" x="502.475" y="-116.387" font-family="Times,serif" font-size="14.00">index</text>
<text text-anchor="start" x="502.475" y="-99.587" font-family="Times,serif" font-size="14.00">new</text>
<text text-anchor="start" x="502.475" y="-82.787" font-family="Times,serif" font-size="14.00">show</text>
<text text-anchor="start" x="502.475" y="-65.987" font-family="Times,serif" font-size="14.00">update</text>
<polyline fill="none" stroke="black" points="494.475,-59.187 604.531,-59.187 "/>
<polyline fill="none" stroke="black" points="494.475,-35.187 604.531,-35.187 "/>
<text text-anchor="start" x="502.475" y="-17.187" font-family="Times,serif" font-size="14.00">_layout</text>
</g>
<!-- ApplicationController&#45;&gt;UsersController -->
<g id="edge20" class="edge"><title>ApplicationController&#45;&gt;UsersController</title>
<path fill="none" stroke="black" d="M449.885,-306.159C465.848,-274.724 483.203,-240.548 498.888,-209.66"/>
</g>
</g>
</svg>
