<?xml version="1.0" encoding="UTF-8" standalone="no"?>
<!DOCTYPE svg PUBLIC "-//W3C//DTD SVG 1.1//EN"
 "http://www.w3.org/Graphics/SVG/1.1/DTD/svg11.dtd">
<!-- Generated by graphviz version 2.28.0 (20121118.0041)
 -->
<!-- Title: models_diagram Pages: 1 -->
<svg width="1098pt" height="238pt"
 viewBox="0.00 0.00 1098.00 238.00" xmlns="http://www.w3.org/2000/svg" xmlns:xlink="http://www.w3.org/1999/xlink">
<g id="graph1" class="graph" transform="scale(1 1) rotate(0) translate(4 234)">
<title>models_diagram</title>
<polygon fill="white" stroke="white" points="-4,5 -4,-234 1095,-234 1095,5 -4,5"/>
<!-- _diagram_info -->
<g id="node1" class="node"><title>_diagram_info</title>
<text text-anchor="start" x="7.78833" y="-213" font-family="Times,serif" font-size="13.00">Models diagram</text>
<text text-anchor="start" x="7.78833" y="-197.4" font-family="Times,serif" font-size="13.00">Date: Nov 17 2012 &#45; 14:48</text>
<text text-anchor="start" x="7.78833" y="-181.8" font-family="Times,serif" font-size="13.00">Migration version: 20121115213438</text>
<text text-anchor="start" x="7.78833" y="-166.2" font-family="Times,serif" font-size="13.00">Generated by RailRoady 1.1.0</text>
<text text-anchor="start" x="7.78833" y="-150.6" font-family="Times,serif" font-size="13.00">http://railroady.prestonlee.com</text>
</g>
<!-- Activity -->
<g id="node2" class="node"><title>Activity</title>
<ellipse fill="none" stroke="black" cx="267" cy="-187" rx="42.5278" ry="18"/>
<text text-anchor="middle" x="267" y="-181.4" font-family="Times,serif" font-size="14.00">Activity</text>
</g>
<!-- Image -->
<g id="node5" class="node"><title>Image</title>
<ellipse fill="none" stroke="black" cx="136" cy="-18" rx="35.2475" ry="18"/>
<text text-anchor="middle" x="136" y="-12.4" font-family="Times,serif" font-size="14.00">Image</text>
</g>
<!-- Activity&#45;&gt;Image -->
<g id="edge8" class="edge"><title>Activity&#45;&gt;Image</title>
<path fill="none" stroke="#d6051c" d="M241.634,-165.056C224.636,-150.23 202.443,-129.272 186,-108 170.748,-88.2696 157.157,-63.3405 148.009,-44.8885"/>
<ellipse fill="none" stroke="#d6051c" cx="245.071" cy="-168.014" rx="4.00002" ry="4.00002"/>
<polygon fill="#d6051c" stroke="#d6051c" points="147.885,-44.6335 147.572,-33.6721 145.704,-40.1343 143.523,-35.6351 143.523,-35.6351 143.523,-35.6351 145.704,-40.1343 139.474,-37.5982 147.885,-44.6335 147.885,-44.6335"/>
</g>
<!-- Interest -->
<g id="node6" class="node"><title>Interest</title>
<ellipse fill="none" stroke="black" cx="500" cy="-18" rx="39.4899" ry="18"/>
<text text-anchor="middle" x="500" y="-12.4" font-family="Times,serif" font-size="14.00">Interest</text>
</g>
<!-- Activity&#45;&gt;Interest -->
<g id="edge2" class="edge"><title>Activity&#45;&gt;Interest</title>
<path fill="none" stroke="#176cf7" d="M294.29,-166.44C338.732,-134.587 426.31,-71.8167 471.513,-39.4178"/>
<ellipse fill="none" stroke="#176cf7" cx="290.928" cy="-168.85" rx="4.00002" ry="4.00002"/>
<polygon fill="#176cf7" stroke="#176cf7" points="471.574,-39.3741 482.323,-37.206 475.638,-36.4613 479.702,-33.5485 479.702,-33.5485 479.702,-33.5485 475.638,-36.4613 477.08,-29.8909 471.574,-39.3741 471.574,-39.3741"/>
</g>
<!-- Place -->
<g id="node12" class="node"><title>Place</title>
<ellipse fill="none" stroke="black" cx="227" cy="-90" rx="31.4242" ry="18"/>
<text text-anchor="middle" x="227" y="-84.4" font-family="Times,serif" font-size="14.00">Place</text>
</g>
<!-- Activity&#45;&gt;Place -->
<g id="edge6" class="edge"><title>Activity&#45;&gt;Place</title>
<path fill="none" stroke="#0975fa" d="M256.565,-161.218C250.872,-147.697 243.827,-130.964 238.042,-117.224"/>
<ellipse fill="none" stroke="#0975fa" cx="258.297" cy="-165.329" rx="4.00001" ry="4.00001"/>
<polygon fill="#0975fa" stroke="#0975fa" points="237.97,-117.053 238.237,-106.091 236.03,-112.445 234.089,-107.837 234.089,-107.837 234.089,-107.837 236.03,-112.445 229.942,-109.583 237.97,-117.053 237.97,-117.053"/>
</g>
<!-- User -->
<g id="node13" class="node"><title>User</title>
<ellipse fill="none" stroke="black" cx="306" cy="-90" rx="28.9087" ry="18"/>
<text text-anchor="middle" x="306" y="-84.4" font-family="Times,serif" font-size="14.00">User</text>
</g>
<!-- Activity&#45;&gt;User -->
<g id="edge4" class="edge"><title>Activity&#45;&gt;User</title>
<path fill="none" stroke="#47dcfc" d="M277.96,-159.302C283.403,-146.045 289.951,-130.093 295.351,-116.94"/>
<polygon fill="#47dcfc" stroke="#47dcfc" points="277.77,-159.765 269.81,-167.307 275.871,-164.39 273.972,-169.016 273.972,-169.016 273.972,-169.016 275.871,-164.39 278.135,-170.725 277.77,-159.765 277.77,-159.765"/>
<polygon fill="#47dcfc" stroke="#47dcfc" points="295.421,-116.77 303.381,-109.228 297.32,-112.144 299.219,-107.519 299.219,-107.519 299.219,-107.519 297.32,-112.144 295.056,-105.81 295.421,-116.77 295.421,-116.77"/>
</g>
<!-- Authentication -->
<g id="node3" class="node"><title>Authentication</title>
<ellipse fill="none" stroke="black" cx="374" cy="-18" rx="68.14" ry="18"/>
<text text-anchor="middle" x="374" y="-12.4" font-family="Times,serif" font-size="14.00">Authentication</text>
</g>
<!-- Comment -->
<g id="node4" class="node"><title>Comment</title>
<ellipse fill="none" stroke="black" cx="238" cy="-18" rx="49.1903" ry="18"/>
<text text-anchor="middle" x="238" y="-12.4" font-family="Times,serif" font-size="14.00">Comment</text>
</g>
<!-- Permissions::AdminPermission -->
<g id="node7" class="node"><title>Permissions::AdminPermission</title>
<polygon fill="none" stroke="black" points="666.93,-108 475.07,-108 475.07,-72 666.93,-72 666.93,-108"/>
<text text-anchor="middle" x="571" y="-84.4" font-family="Times,serif" font-size="14.00">Permissions::AdminPermission</text>
</g>
<!-- Permissions::BasePermission -->
<g id="node8" class="node"><title>Permissions::BasePermission</title>
<polygon fill="none" stroke="black" points="868.173,-205 687.827,-205 687.827,-169 868.173,-169 868.173,-205"/>
<text text-anchor="middle" x="778" y="-181.4" font-family="Times,serif" font-size="14.00">Permissions::BasePermission</text>
</g>
<!-- Permissions::BasePermission&#45;&gt;Permissions::AdminPermission -->
<g id="edge10" class="edge"><title>Permissions::BasePermission&#45;&gt;Permissions::AdminPermission</title>
<path fill="none" stroke="black" d="M740.514,-168.796C702.999,-151.579 645.624,-125.248 608.207,-108.076"/>
</g>
<!-- Permissions::GuestPermission -->
<g id="node9" class="node"><title>Permissions::GuestPermission</title>
<polygon fill="none" stroke="black" points="871.259,-108 684.741,-108 684.741,-72 871.259,-72 871.259,-108"/>
<text text-anchor="middle" x="778" y="-84.4" font-family="Times,serif" font-size="14.00">Permissions::GuestPermission</text>
</g>
<!-- Permissions::BasePermission&#45;&gt;Permissions::GuestPermission -->
<g id="edge12" class="edge"><title>Permissions::BasePermission&#45;&gt;Permissions::GuestPermission</title>
<path fill="none" stroke="black" d="M778,-168.576C778,-151.434 778,-125.417 778,-108.314"/>
</g>
<!-- Permissions::MemberPermission -->
<g id="node10" class="node"><title>Permissions::MemberPermission</title>
<polygon fill="none" stroke="black" points="1090.33,-108 889.667,-108 889.667,-72 1090.33,-72 1090.33,-108"/>
<text text-anchor="middle" x="990" y="-84.4" font-family="Times,serif" font-size="14.00">Permissions::MemberPermission</text>
</g>
<!-- Permissions::BasePermission&#45;&gt;Permissions::MemberPermission -->
<g id="edge14" class="edge"><title>Permissions::BasePermission&#45;&gt;Permissions::MemberPermission</title>
<path fill="none" stroke="black" d="M816.392,-168.796C854.813,-151.579 913.574,-125.248 951.894,-108.076"/>
</g>
<!-- Permissions -->
<g id="node11" class="node"><title>Permissions</title>
<polygon fill="none" stroke="black" stroke-dasharray="1,5" points="969.259,-205 886.741,-205 886.741,-169 969.259,-169 969.259,-205"/>
<text text-anchor="middle" x="928" y="-181.4" font-family="Times,serif" font-size="14.00">Permissions</text>
</g>
<!-- Place&#45;&gt;Comment -->
<g id="edge16" class="edge"><title>Place&#45;&gt;Comment</title>
<path fill="none" stroke="#27614d" d="M230.931,-63.9868C231.832,-58.2493 232.795,-52.1211 233.711,-46.2929"/>
<ellipse fill="none" stroke="#27614d" cx="230.284" cy="-68.1034" rx="4.00001" ry="4.00001"/>
<polygon fill="#27614d" stroke="#27614d" points="233.733,-46.1541 239.731,-36.9739 234.509,-41.2147 235.285,-36.2753 235.285,-36.2753 235.285,-36.2753 234.509,-41.2147 230.84,-35.5767 233.733,-46.1541 233.733,-46.1541"/>
</g>
<!-- Place&#45;&gt;Image -->
<g id="edge18" class="edge"><title>Place&#45;&gt;Image</title>
<path fill="none" stroke="#4defd9" d="M202.407,-70.0825C190.167,-60.667 175.348,-49.2673 162.816,-39.6279"/>
<ellipse fill="none" stroke="#4defd9" cx="205.851" cy="-72.7314" rx="4.00002" ry="4.00002"/>
<polygon fill="#4defd9" stroke="#4defd9" points="162.492,-39.3787 157.31,-29.7148 158.529,-36.3302 154.566,-33.2816 154.566,-33.2816 154.566,-33.2816 158.529,-36.3302 151.822,-36.8484 162.492,-39.3787 162.492,-39.3787"/>
</g>
<!-- User&#45;&gt;Authentication -->
<g id="edge22" class="edge"><title>User&#45;&gt;Authentication</title>
<path fill="none" stroke="#b71819" d="M326.089,-68.3197C333.8,-60.3819 342.665,-51.2566 350.656,-43.0307"/>
<ellipse fill="none" stroke="#b71819" cx="323.208" cy="-71.2857" rx="4.00002" ry="4.00002"/>
<polygon fill="#b71819" stroke="#b71819" points="350.723,-42.9618 360.918,-38.9245 354.207,-39.3754 357.691,-35.789 357.691,-35.789 357.691,-35.789 354.207,-39.3754 354.463,-32.6535 350.723,-42.9618 350.723,-42.9618"/>
</g>
<!-- User&#45;&gt;Comment -->
<g id="edge24" class="edge"><title>User&#45;&gt;Comment</title>
<path fill="none" stroke="#47fe0d" d="M285.826,-68.2324C277.996,-60.1724 268.987,-50.8987 260.915,-42.5887"/>
<ellipse fill="none" stroke="#47fe0d" cx="288.792" cy="-71.2857" rx="4.00002" ry="4.00002"/>
<polygon fill="#47fe0d" stroke="#47fe0d" points="260.793,-42.4633 257.053,-32.1549 257.309,-38.8769 253.825,-35.2905 253.825,-35.2905 253.825,-35.2905 257.309,-38.8769 250.597,-38.426 260.793,-42.4633 260.793,-42.4633"/>
</g>
<!-- User&#45;&gt;Image -->
<g id="edge26" class="edge"><title>User&#45;&gt;Image</title>
<path fill="none" stroke="#b561ab" d="M275.456,-75.5937C272.602,-74.3688 269.749,-73.1551 267,-72 235.211,-58.6437 198.842,-43.9782 172.504,-33.4668"/>
<ellipse fill="none" stroke="#b561ab" cx="279.275" cy="-77.2437" rx="4.00002" ry="4.00002"/>
<polygon fill="#b561ab" stroke="#b561ab" points="172.221,-33.3541 164.597,-25.4725 167.576,-31.5035 162.931,-29.6529 162.931,-29.6529 162.931,-29.6529 167.576,-31.5035 161.266,-33.8334 172.221,-33.3541 172.221,-33.3541"/>
</g>
<!-- User&#45;&gt;Interest -->
<g id="edge20" class="edge"><title>User&#45;&gt;Interest</title>
<path fill="none" stroke="#4c1127" d="M338.48,-77.2803C371.982,-65.1922 424.27,-46.3252 460.227,-33.3509"/>
<ellipse fill="none" stroke="#4c1127" cx="334.333" cy="-78.7768" rx="4.00001" ry="4.00001"/>
<polygon fill="#4c1127" stroke="#4c1127" points="460.501,-33.2524 471.434,-34.0912 465.204,-31.5554 469.907,-29.8583 469.907,-29.8583 469.907,-29.8583 465.204,-31.5554 468.38,-25.6254 460.501,-33.2524 460.501,-33.2524"/>
</g>
</g>
</svg>
