<?xml version="1.0" encoding="UTF-8" standalone="no"?>
<!DOCTYPE svg PUBLIC "-//W3C//DTD SVG 1.1//EN"
 "http://www.w3.org/Graphics/SVG/1.1/DTD/svg11.dtd">
<!-- Generated by graphviz version 2.28.0 (20121118.0041)
 -->
<!-- Title: models_diagram Pages: 1 -->
<svg width="1185pt" height="654pt"
 viewBox="0.00 0.00 1185.00 654.00" xmlns="http://www.w3.org/2000/svg" xmlns:xlink="http://www.w3.org/1999/xlink">
<g id="graph1" class="graph" transform="scale(1 1) rotate(0) translate(4 650)">
<title>models_diagram</title>
<polygon fill="white" stroke="white" points="-4,5 -4,-650 1182,-650 1182,5 -4,5"/>
<!-- _diagram_info -->
<g id="node1" class="node"><title>_diagram_info</title>
<text text-anchor="start" x="7.78833" y="-621" font-family="Times,serif" font-size="13.00">Models diagram</text>
<text text-anchor="start" x="7.78833" y="-605.4" font-family="Times,serif" font-size="13.00">Date: Nov 17 2012 &#45; 14:48</text>
<text text-anchor="start" x="7.78833" y="-589.8" font-family="Times,serif" font-size="13.00">Migration version: 20121115213438</text>
<text text-anchor="start" x="7.78833" y="-574.2" font-family="Times,serif" font-size="13.00">Generated by RailRoady 1.1.0</text>
<text text-anchor="start" x="7.78833" y="-558.6" font-family="Times,serif" font-size="13.00">http://railroady.prestonlee.com</text>
</g>
<!-- Activity -->
<g id="node2" class="node"><title>Activity</title>
<polyline fill="none" stroke="black" points="236.495,-545 345.505,-545 "/>
<path fill="none" stroke="black" d="M345.505,-545C351.505,-545 357.505,-551 357.505,-557"/>
<polyline fill="none" stroke="black" points="357.505,-557 357.505,-633 "/>
<path fill="none" stroke="black" d="M357.505,-633C357.505,-639 351.505,-645 345.505,-645"/>
<polyline fill="none" stroke="black" points="345.505,-645 236.495,-645 "/>
<path fill="none" stroke="black" d="M236.495,-645C230.495,-645 224.495,-639 224.495,-633"/>
<polyline fill="none" stroke="black" points="224.495,-633 224.495,-557 "/>
<path fill="none" stroke="black" d="M224.495,-557C224.495,-551 230.495,-545 236.495,-545"/>
<text text-anchor="middle" x="291" y="-627" font-family="Times,serif" font-size="14.00">Activity</text>
<polyline fill="none" stroke="black" points="224.495,-620.2 357.505,-620.2 "/>
<text text-anchor="start" x="232.495" y="-602.2" font-family="Times,serif" font-size="14.00">id :integer</text>
<text text-anchor="start" x="232.495" y="-585.4" font-family="Times,serif" font-size="14.00">name :string</text>
<text text-anchor="start" x="232.495" y="-568.6" font-family="Times,serif" font-size="14.00">created_at :datetime</text>
<text text-anchor="start" x="232.495" y="-551.8" font-family="Times,serif" font-size="14.00">updated_at :datetime</text>
</g>
<!-- Image -->
<g id="node5" class="node"><title>Image</title>
<polyline fill="none" stroke="black" points="32.4946,-0.8 141.505,-0.8 "/>
<path fill="none" stroke="black" d="M141.505,-0.8C147.505,-0.8 153.505,-6.8 153.505,-12.8"/>
<polyline fill="none" stroke="black" points="153.505,-12.8 153.505,-223.2 "/>
<path fill="none" stroke="black" d="M153.505,-223.2C153.505,-229.2 147.505,-235.2 141.505,-235.2"/>
<polyline fill="none" stroke="black" points="141.505,-235.2 32.4946,-235.2 "/>
<path fill="none" stroke="black" d="M32.4946,-235.2C26.4946,-235.2 20.4946,-229.2 20.4946,-223.2"/>
<polyline fill="none" stroke="black" points="20.4946,-223.2 20.4946,-12.8 "/>
<path fill="none" stroke="black" d="M20.4946,-12.8C20.4946,-6.8 26.4946,-0.8 32.4946,-0.8"/>
<text text-anchor="middle" x="87" y="-217.2" font-family="Times,serif" font-size="14.00">Image</text>
<polyline fill="none" stroke="black" points="20.4946,-210.4 153.505,-210.4 "/>
<text text-anchor="start" x="28.4946" y="-192.4" font-family="Times,serif" font-size="14.00">id :integer</text>
<text text-anchor="start" x="28.4946" y="-175.6" font-family="Times,serif" font-size="14.00">url :string</text>
<text text-anchor="start" x="28.4946" y="-158.8" font-family="Times,serif" font-size="14.00">created_at :datetime</text>
<text text-anchor="start" x="28.4946" y="-142" font-family="Times,serif" font-size="14.00">updated_at :datetime</text>
<text text-anchor="start" x="28.4946" y="-125.2" font-family="Times,serif" font-size="14.00">place_id :integer</text>
<text text-anchor="start" x="28.4946" y="-108.4" font-family="Times,serif" font-size="14.00">event_id :integer</text>
<text text-anchor="start" x="28.4946" y="-91.6" font-family="Times,serif" font-size="14.00">rating :decimal</text>
<text text-anchor="start" x="28.4946" y="-74.8" font-family="Times,serif" font-size="14.00">image_type :string</text>
<text text-anchor="start" x="28.4946" y="-58" font-family="Times,serif" font-size="14.00">activity_id :integer</text>
<text text-anchor="start" x="28.4946" y="-41.2" font-family="Times,serif" font-size="14.00">user_id :integer</text>
<text text-anchor="start" x="28.4946" y="-24.4" font-family="Times,serif" font-size="14.00">title :string</text>
<text text-anchor="start" x="28.4946" y="-7.6" font-family="Times,serif" font-size="14.00">description :string</text>
</g>
<!-- Activity&#45;&gt;Image -->
<g id="edge8" class="edge"><title>Activity&#45;&gt;Image</title>
<path fill="none" stroke="#537a1a" d="M217.033,-545.054C216.354,-544.698 215.676,-544.347 215,-544 175.192,-523.587 147.936,-543.719 121,-508 65.2626,-434.087 59.3135,-328.343 65.8961,-245.758"/>
<ellipse fill="none" stroke="#537a1a" cx="220.822" cy="-547.11" rx="4.00002" ry="4.00002"/>
<polygon fill="#537a1a" stroke="#537a1a" points="65.9174,-245.512 71.2656,-235.939 66.3499,-240.53 66.7825,-235.549 66.7825,-235.549 66.7825,-235.549 66.3499,-240.53 62.2993,-235.16 65.9174,-245.512 65.9174,-245.512"/>
</g>
<!-- Interest -->
<g id="node6" class="node"><title>Interest</title>
<polyline fill="none" stroke="black" points="485.495,-51.2 594.505,-51.2 "/>
<path fill="none" stroke="black" d="M594.505,-51.2C600.505,-51.2 606.505,-57.2 606.505,-63.2"/>
<polyline fill="none" stroke="black" points="606.505,-63.2 606.505,-172.8 "/>
<path fill="none" stroke="black" d="M606.505,-172.8C606.505,-178.8 600.505,-184.8 594.505,-184.8"/>
<polyline fill="none" stroke="black" points="594.505,-184.8 485.495,-184.8 "/>
<path fill="none" stroke="black" d="M485.495,-184.8C479.495,-184.8 473.495,-178.8 473.495,-172.8"/>
<polyline fill="none" stroke="black" points="473.495,-172.8 473.495,-63.2 "/>
<path fill="none" stroke="black" d="M473.495,-63.2C473.495,-57.2 479.495,-51.2 485.495,-51.2"/>
<text text-anchor="middle" x="540" y="-166.8" font-family="Times,serif" font-size="14.00">Interest</text>
<polyline fill="none" stroke="black" points="473.495,-160 606.505,-160 "/>
<text text-anchor="start" x="481.495" y="-142" font-family="Times,serif" font-size="14.00">id :integer</text>
<text text-anchor="start" x="481.495" y="-125.2" font-family="Times,serif" font-size="14.00">user_id :integer</text>
<text text-anchor="start" x="481.495" y="-108.4" font-family="Times,serif" font-size="14.00">activity_id :integer</text>
<text text-anchor="start" x="481.495" y="-91.6" font-family="Times,serif" font-size="14.00">user_rating :integer</text>
<text text-anchor="start" x="481.495" y="-74.8" font-family="Times,serif" font-size="14.00">created_at :datetime</text>
<text text-anchor="start" x="481.495" y="-58" font-family="Times,serif" font-size="14.00">updated_at :datetime</text>
</g>
<!-- Activity&#45;&gt;Interest -->
<g id="edge2" class="edge"><title>Activity&#45;&gt;Interest</title>
<path fill="none" stroke="#380d56" d="M365.771,-581.844C410.454,-570.514 464.326,-548.899 495,-508 530.9,-460.133 538.706,-294.184 540.08,-195.165"/>
<ellipse fill="none" stroke="#380d56" cx="361.716" cy="-582.83" rx="4.00001" ry="4.00001"/>
<polygon fill="#380d56" stroke="#380d56" points="540.083,-194.912 544.702,-184.966 540.143,-189.912 540.203,-184.912 540.203,-184.912 540.203,-184.912 540.143,-189.912 535.703,-184.858 540.083,-194.912 540.083,-194.912"/>
</g>
<!-- Place -->
<g id="node12" class="node"><title>Place</title>
<polyline fill="none" stroke="black" points="142.495,-298 251.505,-298 "/>
<path fill="none" stroke="black" d="M251.505,-298C257.505,-298 263.505,-304 263.505,-310"/>
<polyline fill="none" stroke="black" points="263.505,-310 263.505,-470 "/>
<path fill="none" stroke="black" d="M263.505,-470C263.505,-476 257.505,-482 251.505,-482"/>
<polyline fill="none" stroke="black" points="251.505,-482 142.495,-482 "/>
<path fill="none" stroke="black" d="M142.495,-482C136.495,-482 130.495,-476 130.495,-470"/>
<polyline fill="none" stroke="black" points="130.495,-470 130.495,-310 "/>
<path fill="none" stroke="black" d="M130.495,-310C130.495,-304 136.495,-298 142.495,-298"/>
<text text-anchor="middle" x="197" y="-464" font-family="Times,serif" font-size="14.00">Place</text>
<polyline fill="none" stroke="black" points="130.495,-457.2 263.505,-457.2 "/>
<text text-anchor="start" x="138.495" y="-439.2" font-family="Times,serif" font-size="14.00">id :integer</text>
<text text-anchor="start" x="138.495" y="-422.4" font-family="Times,serif" font-size="14.00">activity_id :integer</text>
<text text-anchor="start" x="138.495" y="-405.6" font-family="Times,serif" font-size="14.00">zip_code :integer</text>
<text text-anchor="start" x="138.495" y="-388.8" font-family="Times,serif" font-size="14.00">location :text</text>
<text text-anchor="start" x="138.495" y="-372" font-family="Times,serif" font-size="14.00">directions :text</text>
<text text-anchor="start" x="138.495" y="-355.2" font-family="Times,serif" font-size="14.00">hours :text</text>
<text text-anchor="start" x="138.495" y="-338.4" font-family="Times,serif" font-size="14.00">created_at :datetime</text>
<text text-anchor="start" x="138.495" y="-321.6" font-family="Times,serif" font-size="14.00">updated_at :datetime</text>
<text text-anchor="start" x="138.495" y="-304.8" font-family="Times,serif" font-size="14.00">title :text</text>
</g>
<!-- Activity&#45;&gt;Place -->
<g id="edge6" class="edge"><title>Activity&#45;&gt;Place</title>
<path fill="none" stroke="#d94160" d="M264.682,-537.165C258.067,-522.879 250.769,-507.119 243.488,-491.393"/>
<ellipse fill="none" stroke="#d94160" cx="266.564" cy="-541.23" rx="4.00002" ry="4.00002"/>
<polygon fill="#d94160" stroke="#d94160" points="243.409,-491.224 243.291,-480.259 241.308,-486.687 239.207,-482.15 239.207,-482.15 239.207,-482.15 241.308,-486.687 235.124,-484.041 243.409,-491.224 243.409,-491.224"/>
</g>
<!-- User -->
<g id="node13" class="node"><title>User</title>
<polyline fill="none" stroke="black" points="293.722,-272.8 474.278,-272.8 "/>
<path fill="none" stroke="black" d="M474.278,-272.8C480.278,-272.8 486.278,-278.8 486.278,-284.8"/>
<polyline fill="none" stroke="black" points="486.278,-284.8 486.278,-495.2 "/>
<path fill="none" stroke="black" d="M486.278,-495.2C486.278,-501.2 480.278,-507.2 474.278,-507.2"/>
<polyline fill="none" stroke="black" points="474.278,-507.2 293.722,-507.2 "/>
<path fill="none" stroke="black" d="M293.722,-507.2C287.722,-507.2 281.722,-501.2 281.722,-495.2"/>
<polyline fill="none" stroke="black" points="281.722,-495.2 281.722,-284.8 "/>
<path fill="none" stroke="black" d="M281.722,-284.8C281.722,-278.8 287.722,-272.8 293.722,-272.8"/>
<text text-anchor="middle" x="384" y="-489.2" font-family="Times,serif" font-size="14.00">User</text>
<polyline fill="none" stroke="black" points="281.722,-482.4 486.278,-482.4 "/>
<text text-anchor="start" x="289.722" y="-464.4" font-family="Times,serif" font-size="14.00">id :integer</text>
<text text-anchor="start" x="289.722" y="-447.6" font-family="Times,serif" font-size="14.00">email :string</text>
<text text-anchor="start" x="289.722" y="-430.8" font-family="Times,serif" font-size="14.00">password_digest :string</text>
<text text-anchor="start" x="289.722" y="-414" font-family="Times,serif" font-size="14.00">created_at :datetime</text>
<text text-anchor="start" x="289.722" y="-397.2" font-family="Times,serif" font-size="14.00">updated_at :datetime</text>
<text text-anchor="start" x="289.722" y="-380.4" font-family="Times,serif" font-size="14.00">zip_code :integer</text>
<text text-anchor="start" x="289.722" y="-363.6" font-family="Times,serif" font-size="14.00">is_admin :boolean</text>
<text text-anchor="start" x="289.722" y="-346.8" font-family="Times,serif" font-size="14.00">auth_token :string</text>
<text text-anchor="start" x="289.722" y="-330" font-family="Times,serif" font-size="14.00">password_reset_token :string</text>
<text text-anchor="start" x="289.722" y="-313.2" font-family="Times,serif" font-size="14.00">password_reset_sent_at :datetime</text>
<text text-anchor="start" x="289.722" y="-296.4" font-family="Times,serif" font-size="14.00">username :string</text>
<text text-anchor="start" x="289.722" y="-279.6" font-family="Times,serif" font-size="14.00">image_url :string</text>
</g>
<!-- Activity&#45;&gt;User -->
<g id="edge4" class="edge"><title>Activity&#45;&gt;User</title>
<path fill="none" stroke="#475e93" d="M317.693,-535.734C320.452,-529.712 323.325,-523.441 326.262,-517.03"/>
<polygon fill="#475e93" stroke="#475e93" points="317.678,-535.768 309.422,-542.985 315.595,-540.314 313.513,-544.859 313.513,-544.859 313.513,-544.859 315.595,-540.314 317.604,-546.734 317.678,-535.768 317.678,-535.768"/>
<polygon fill="#475e93" stroke="#475e93" points="326.44,-516.642 334.696,-509.425 328.522,-512.097 330.605,-507.551 330.605,-507.551 330.605,-507.551 328.522,-512.097 326.514,-505.677 326.44,-516.642 326.44,-516.642"/>
</g>
<!-- Authentication -->
<g id="node3" class="node"><title>Authentication</title>
<polyline fill="none" stroke="black" points="334.495,-34.4 443.505,-34.4 "/>
<path fill="none" stroke="black" d="M443.505,-34.4C449.505,-34.4 455.505,-40.4 455.505,-46.4"/>
<polyline fill="none" stroke="black" points="455.505,-46.4 455.505,-189.6 "/>
<path fill="none" stroke="black" d="M455.505,-189.6C455.505,-195.6 449.505,-201.6 443.505,-201.6"/>
<polyline fill="none" stroke="black" points="443.505,-201.6 334.495,-201.6 "/>
<path fill="none" stroke="black" d="M334.495,-201.6C328.495,-201.6 322.495,-195.6 322.495,-189.6"/>
<polyline fill="none" stroke="black" points="322.495,-189.6 322.495,-46.4 "/>
<path fill="none" stroke="black" d="M322.495,-46.4C322.495,-40.4 328.495,-34.4 334.495,-34.4"/>
<text text-anchor="middle" x="389" y="-183.6" font-family="Times,serif" font-size="14.00">Authentication</text>
<polyline fill="none" stroke="black" points="322.495,-176.8 455.505,-176.8 "/>
<text text-anchor="start" x="330.495" y="-158.8" font-family="Times,serif" font-size="14.00">id :integer</text>
<text text-anchor="start" x="330.495" y="-142" font-family="Times,serif" font-size="14.00">uid :string</text>
<text text-anchor="start" x="330.495" y="-125.2" font-family="Times,serif" font-size="14.00">provider :string</text>
<text text-anchor="start" x="330.495" y="-108.4" font-family="Times,serif" font-size="14.00">user_id :integer</text>
<text text-anchor="start" x="330.495" y="-91.6" font-family="Times,serif" font-size="14.00">image_url :string</text>
<text text-anchor="start" x="330.495" y="-74.8" font-family="Times,serif" font-size="14.00">sent_at :datetime</text>
<text text-anchor="start" x="330.495" y="-58" font-family="Times,serif" font-size="14.00">created_at :datetime</text>
<text text-anchor="start" x="330.495" y="-41.2" font-family="Times,serif" font-size="14.00">updated_at :datetime</text>
</g>
<!-- Comment -->
<g id="node4" class="node"><title>Comment</title>
<polyline fill="none" stroke="black" points="183.495,-51.2 292.505,-51.2 "/>
<path fill="none" stroke="black" d="M292.505,-51.2C298.505,-51.2 304.505,-57.2 304.505,-63.2"/>
<polyline fill="none" stroke="black" points="304.505,-63.2 304.505,-172.8 "/>
<path fill="none" stroke="black" d="M304.505,-172.8C304.505,-178.8 298.505,-184.8 292.505,-184.8"/>
<polyline fill="none" stroke="black" points="292.505,-184.8 183.495,-184.8 "/>
<path fill="none" stroke="black" d="M183.495,-184.8C177.495,-184.8 171.495,-178.8 171.495,-172.8"/>
<polyline fill="none" stroke="black" points="171.495,-172.8 171.495,-63.2 "/>
<path fill="none" stroke="black" d="M171.495,-63.2C171.495,-57.2 177.495,-51.2 183.495,-51.2"/>
<text text-anchor="middle" x="238" y="-166.8" font-family="Times,serif" font-size="14.00">Comment</text>
<polyline fill="none" stroke="black" points="171.495,-160 304.505,-160 "/>
<text text-anchor="start" x="179.495" y="-142" font-family="Times,serif" font-size="14.00">id :integer</text>
<text text-anchor="start" x="179.495" y="-125.2" font-family="Times,serif" font-size="14.00">user_id :integer</text>
<text text-anchor="start" x="179.495" y="-108.4" font-family="Times,serif" font-size="14.00">place_id :integer</text>
<text text-anchor="start" x="179.495" y="-91.6" font-family="Times,serif" font-size="14.00">text :text</text>
<text text-anchor="start" x="179.495" y="-74.8" font-family="Times,serif" font-size="14.00">created_at :datetime</text>
<text text-anchor="start" x="179.495" y="-58" font-family="Times,serif" font-size="14.00">updated_at :datetime</text>
</g>
<!-- Permissions::AdminPermission -->
<g id="node7" class="node"><title>Permissions::AdminPermission</title>
<polygon fill="none" stroke="black" points="561.714,-365.2 561.714,-414.8 754.286,-414.8 754.286,-365.2 561.714,-365.2"/>
<text text-anchor="middle" x="658" y="-396.8" font-family="Times,serif" font-size="14.00">Permissions::AdminPermission</text>
<polyline fill="none" stroke="black" points="561.714,-390 754.286,-390 "/>
<text text-anchor="middle" x="658" y="-372" font-family="Times,serif" font-size="14.00"> </text>
</g>
<!-- Permissions::BasePermission -->
<g id="node8" class="node"><title>Permissions::BasePermission</title>
<polygon fill="none" stroke="black" points="774.552,-570.2 774.552,-619.8 955.448,-619.8 955.448,-570.2 774.552,-570.2"/>
<text text-anchor="middle" x="865" y="-601.8" font-family="Times,serif" font-size="14.00">Permissions::BasePermission</text>
<polyline fill="none" stroke="black" points="774.552,-595 955.448,-595 "/>
<text text-anchor="middle" x="865" y="-577" font-family="Times,serif" font-size="14.00"> </text>
</g>
<!-- Permissions::BasePermission&#45;&gt;Permissions::AdminPermission -->
<g id="edge10" class="edge"><title>Permissions::BasePermission&#45;&gt;Permissions::AdminPermission</title>
<path fill="none" stroke="black" d="M834.139,-569.847C813.393,-553.166 785.782,-530.089 763,-508 731.648,-477.602 698.471,-439.499 677.996,-415.196"/>
</g>
<!-- Permissions::GuestPermission -->
<g id="node9" class="node"><title>Permissions::GuestPermission</title>
<polygon fill="none" stroke="black" points="771.828,-365.2 771.828,-414.8 958.172,-414.8 958.172,-365.2 771.828,-365.2"/>
<text text-anchor="middle" x="865" y="-396.8" font-family="Times,serif" font-size="14.00">Permissions::GuestPermission</text>
<polyline fill="none" stroke="black" points="771.828,-390 958.172,-390 "/>
<text text-anchor="middle" x="865" y="-372" font-family="Times,serif" font-size="14.00"> </text>
</g>
<!-- Permissions::BasePermission&#45;&gt;Permissions::GuestPermission -->
<g id="edge12" class="edge"><title>Permissions::BasePermission&#45;&gt;Permissions::GuestPermission</title>
<path fill="none" stroke="black" d="M865,-569.916C865,-530.847 865,-454.102 865,-415.053"/>
</g>
<!-- Permissions::MemberPermission -->
<g id="node10" class="node"><title>Permissions::MemberPermission</title>
<polygon fill="none" stroke="black" points="976.445,-365.2 976.445,-414.8 1177.56,-414.8 1177.56,-365.2 976.445,-365.2"/>
<text text-anchor="middle" x="1077" y="-396.8" font-family="Times,serif" font-size="14.00">Permissions::MemberPermission</text>
<polyline fill="none" stroke="black" points="976.445,-390 1177.56,-390 "/>
<text text-anchor="middle" x="1077" y="-372" font-family="Times,serif" font-size="14.00"> </text>
</g>
<!-- Permissions::BasePermission&#45;&gt;Permissions::MemberPermission -->
<g id="edge14" class="edge"><title>Permissions::BasePermission&#45;&gt;Permissions::MemberPermission</title>
<path fill="none" stroke="black" d="M895.245,-570.041C915.968,-553.256 943.795,-529.983 967,-508 999.384,-477.321 1034.26,-439.288 1055.86,-415.077"/>
</g>
<!-- Permissions -->
<g id="node11" class="node"><title>Permissions</title>
<polygon fill="none" stroke="black" stroke-dasharray="1,5" points="1056.26,-613 973.741,-613 973.741,-577 1056.26,-577 1056.26,-613"/>
<text text-anchor="middle" x="1015" y="-589.4" font-family="Times,serif" font-size="14.00">Permissions</text>
</g>
<!-- Place&#45;&gt;Comment -->
<g id="edge16" class="edge"><title>Place&#45;&gt;Comment</title>
<path fill="none" stroke="#467333" d="M212.088,-289.641C216.83,-258.409 221.989,-224.436 226.446,-195.085"/>
<ellipse fill="none" stroke="#467333" cx="211.424" cy="-294.012" rx="4.00001" ry="4.00001"/>
<polygon fill="#467333" stroke="#467333" points="226.49,-194.794 232.441,-185.583 227.241,-189.851 227.992,-184.908 227.992,-184.908 227.992,-184.908 227.241,-189.851 223.543,-184.232 226.49,-194.794 226.49,-194.794"/>
</g>
<!-- Place&#45;&gt;Image -->
<g id="edge18" class="edge"><title>Place&#45;&gt;Image</title>
<path fill="none" stroke="#ae942f" d="M156.822,-290.382C150.804,-275.61 144.53,-260.209 138.318,-244.964"/>
<ellipse fill="none" stroke="#ae942f" cx="158.403" cy="-294.262" rx="4.00001" ry="4.00001"/>
<polygon fill="#ae942f" stroke="#ae942f" points="138.235,-244.759 138.629,-233.8 136.349,-240.128 134.462,-235.498 134.462,-235.498 134.462,-235.498 136.349,-240.128 130.295,-237.196 138.235,-244.759 138.235,-244.759"/>
</g>
<!-- User&#45;&gt;Authentication -->
<g id="edge22" class="edge"><title>User&#45;&gt;Authentication</title>
<path fill="none" stroke="#fc553e" d="M386.307,-264.411C386.633,-246.806 386.964,-228.964 387.276,-212.092"/>
<ellipse fill="none" stroke="#fc553e" cx="386.231" cy="-268.537" rx="4" ry="4"/>
<polygon fill="#fc553e" stroke="#fc553e" points="387.283,-211.721 391.967,-201.806 387.375,-206.721 387.468,-201.722 387.468,-201.722 387.468,-201.722 387.375,-206.721 382.969,-201.639 387.283,-211.721 387.283,-211.721"/>
</g>
<!-- User&#45;&gt;Comment -->
<g id="edge24" class="edge"><title>User&#45;&gt;Comment</title>
<path fill="none" stroke="#23e008" d="M317.214,-265.492C304.014,-241.08 290.54,-216.163 278.537,-193.965"/>
<ellipse fill="none" stroke="#23e008" cx="319.121" cy="-269.018" rx="4.00002" ry="4.00002"/>
<polygon fill="#23e008" stroke="#23e008" points="278.42,-193.75 277.622,-182.813 276.042,-189.352 273.664,-184.954 273.664,-184.954 273.664,-184.954 276.042,-189.352 269.705,-187.094 278.42,-193.75 278.42,-193.75"/>
</g>
<!-- User&#45;&gt;Image -->
<g id="edge26" class="edge"><title>User&#45;&gt;Image</title>
<path fill="none" stroke="#f89fe5" d="M274.704,-273.732C273.805,-273.146 272.904,-272.569 272,-272 228.465,-244.599 202.684,-267.479 162,-236 161.821,-235.862 161.643,-235.723 161.464,-235.583"/>
<ellipse fill="none" stroke="#f89fe5" cx="278.242" cy="-276.137" rx="4.00002" ry="4.00002"/>
<polygon fill="#f89fe5" stroke="#f89fe5" points="161.274,-235.422 156.558,-225.522 157.461,-232.188 153.647,-228.954 153.647,-228.954 153.647,-228.954 157.461,-232.188 150.737,-232.386 161.274,-235.422 161.274,-235.422"/>
</g>
<!-- User&#45;&gt;Interest -->
<g id="edge20" class="edge"><title>User&#45;&gt;Interest</title>
<path fill="none" stroke="#7ba33c" d="M455.36,-265.492C469.528,-240.971 483.989,-215.941 496.858,-193.67"/>
<ellipse fill="none" stroke="#7ba33c" cx="453.291" cy="-269.073" rx="4.00002" ry="4.00002"/>
<polygon fill="#7ba33c" stroke="#7ba33c" points="496.891,-193.612 505.79,-187.205 499.392,-189.283 501.893,-184.954 501.893,-184.954 501.893,-184.954 499.392,-189.283 497.997,-182.702 496.891,-193.612 496.891,-193.612"/>
</g>
</g>
</svg>
